<?xml version="1.0" encoding="UTF-8"?><svg id="Layer_2" xmlns="http://www.w3.org/2000/svg" viewBox="0 0 32.47 20.15"><defs><style>.cls-1{fill:#fff;}.cls-2{stroke:#fff;stroke-miterlimit:10;stroke-width:1.64px;}</style></defs><g id="Mobile_Overlay"><g><line class="cls-2" x1="28.55" y1="3.92" x2="17.85" y2="14.62"/><g><line class="cls-2" x1="14.63" y1="14.62" x2="3.92" y2="3.92"/><g><path d="M16.2,19.33h-.06c-.77,0-1.5-.31-2.09-.9L1.73,6.11c-.9-.9-1.15-2.11-.68-3.24C1.56,1.66,2.77,.82,4.01,.82c.78,0,1.5,.32,2.1,.91l10.12,10.12S23.96,4.13,26.36,1.73c.6-.6,1.32-.91,2.1-.91,1.24,0,2.46,.84,2.96,2.05,.47,1.13,.22,2.34-.68,3.24-2.74,2.74-12.31,12.31-12.31,12.31-.59,.59-1.31,.91-2.08,.91h-.15Z"/><path class="cls-1" d="M28.46,1.64c1.75,0,3.31,2.29,1.7,3.89-4.11,4.1-8.21,8.21-12.31,12.31-.47,.47-.99,.67-1.5,.67-.03,0-.07,0-.1,0-.03,0-.07,0-.1,0-.51,0-1.04-.2-1.51-.67L2.31,5.53c-1.6-1.61-.05-3.89,1.7-3.89,.51,0,1.05,.2,1.52,.67l10.7,10.71c3.57-3.57,7.14-7.13,10.7-10.71,.47-.47,1-.67,1.52-.67m0-1.64h0c-1,0-1.93,.4-2.68,1.15-2.28,2.28-4.55,4.56-6.83,6.83l-2.71,2.71L6.69,1.15c-.75-.75-1.68-1.15-2.68-1.15C2.42,0,.93,1.03,.3,2.56-.3,4.01,.02,5.55,1.15,6.69l12.31,12.31c.74,.74,1.69,1.15,2.67,1.15,.03,0,.07,0,.1,0,.03,0,.07,0,.1,0,.99,0,1.91-.4,2.66-1.15l3.92-3.92c2.8-2.8,5.59-5.6,8.39-8.39,1.14-1.14,1.46-2.68,.86-4.13-.63-1.53-2.13-2.56-3.72-2.56h0Z"/></g></g></g></g></svg>