<?xml version="1.0" encoding="UTF-8"?><svg id="Layer_2" xmlns="http://www.w3.org/2000/svg" viewBox="0 0 32.47 20.15"><defs><style>.cls-1{fill:#fff;}.cls-2{stroke:#fff;stroke-miterlimit:10;stroke-width:1.64px;}</style></defs><g id="Mobile_Overlay"><g><line class="cls-2" x1="17.85" y1="5.53" x2="28.55" y2="16.23"/><g><line class="cls-2" x1="3.92" y1="16.23" x2="14.63" y2="5.53"/><g><path d="M28.46,19.33c-.78,0-1.5-.32-2.1-.91-2.39-2.4-10.12-10.12-10.12-10.12L6.11,18.42c-.59,.6-1.32,.91-2.1,.91-1.24,0-2.46-.84-2.96-2.05-.47-1.13-.22-2.35,.68-3.24L14.05,1.73c.59-.59,1.32-.91,2.09-.91h.21c.77,0,1.49,.31,2.08,.91,0,0,9.57,9.57,12.31,12.31,.9,.9,1.15,2.11,.68,3.24-.5,1.21-1.72,2.05-2.96,2.05h0Z"/><path class="cls-1" d="M16.35,1.64c.51,0,1.03,.2,1.5,.67,4.11,4.11,8.21,8.21,12.31,12.31,1.61,1.61,.05,3.89-1.7,3.89-.52,0-1.05-.2-1.52-.67-3.56-3.57-7.13-7.13-10.7-10.7L5.53,17.84c-.47,.47-1,.67-1.52,.67-1.75,0-3.3-2.29-1.7-3.89L14.63,2.31c.47-.47,1-.67,1.51-.67,.04,0,.07,0,.11,0,.04,0,.07,0,.11,0m0-1.64s-.07,0-.11,0c-.04,0-.07,0-.11,0-.98,0-1.93,.41-2.67,1.15L1.16,13.46C.02,14.6-.3,16.14,.3,17.59c.63,1.53,2.13,2.56,3.71,2.56,1,0,1.93-.4,2.68-1.15l9.54-9.54,2.41,2.41c2.38,2.38,4.76,4.76,7.13,7.14,.75,.75,1.68,1.15,2.68,1.15,1.59,0,3.08-1.03,3.72-2.56,.6-1.45,.28-3-.86-4.13-2.68-2.67-5.35-5.35-8.03-8.03L19.01,1.15c-.75-.75-1.67-1.15-2.66-1.15h0Z"/></g></g></g></g></svg>